<svg id="visual" viewBox="0 0 960 180" width="960" height="180" xmlns="http://www.w3.org/2000/svg" xmlns:xlink="http://www.w3.org/1999/xlink" version="1.1"><path d="M0 100L22.8 106C45.7 112 91.3 124 137 129.2C182.7 134.3 228.3 132.7 274 131.3C319.7 130 365.3 129 411.2 134.8C457 140.7 503 153.3 548.8 154.7C594.7 156 640.3 146 686 137.8C731.7 129.7 777.3 123.3 823 120.3C868.7 117.3 914.3 117.7 937.2 117.8L960 118L960 0L937.2 0C914.3 0 868.7 0 823 0C777.3 0 731.7 0 686 0C640.3 0 594.7 0 548.8 0C503 0 457 0 411.2 0C365.3 0 319.7 0 274 0C228.3 0 182.7 0 137 0C91.3 0 45.7 0 22.8 0L0 0Z" fill="#a975e1"></path><path d="M0 70L22.8 78.3C45.7 86.7 91.3 103.3 137 112.3C182.7 121.3 228.3 122.7 274 110.2C319.7 97.7 365.3 71.3 411.2 64.7C457 58 503 71 548.8 84.3C594.7 97.7 640.3 111.3 686 114.7C731.7 118 777.3 111 823 98.8C868.7 86.7 914.3 69.3 937.2 60.7L960 52L960 0L937.2 0C914.3 0 868.7 0 823 0C777.3 0 731.7 0 686 0C640.3 0 594.7 0 548.8 0C503 0 457 0 411.2 0C365.3 0 319.7 0 274 0C228.3 0 182.7 0 137 0C91.3 0 45.7 0 22.8 0L0 0Z" fill="#ceaef1"></path><path d="M0 78L22.8 73.3C45.7 68.7 91.3 59.3 137 57.2C182.7 55 228.3 60 274 63.3C319.7 66.7 365.3 68.3 411.2 69.2C457 70 503 70 548.8 62.8C594.7 55.7 640.3 41.3 686 41.3C731.7 41.3 777.3 55.7 823 59.5C868.7 63.3 914.3 56.7 937.2 53.3L960 50L960 0L937.2 0C914.3 0 868.7 0 823 0C777.3 0 731.7 0 686 0C640.3 0 594.7 0 548.8 0C503 0 457 0 411.2 0C365.3 0 319.7 0 274 0C228.3 0 182.7 0 137 0C91.3 0 45.7 0 22.8 0L0 0Z" fill="#f3e8ff"></path></svg>